# xmcd
#
# Track frame offsets:
#	150
#	15087
#	31132
#	46015
#	64192
#	78600
#	90685
#	104207
#	124125
#	143195
#	157152
#	173127
#
# Disc length: 2455 seconds
#
# Revision: 1
# Processed by: cddbd v1.5PL3 Copyright (c) Steve Scherf et al.
# Submitted via: audiograbber 1.82.01
#
DISCID=9a09950c
DTITLE=Bill Barwick - From Somewhere Out West
DYEAR=1995
DGENRE=Country
TTITLE0=Her Smile
TTITLE1=I Got The Message
TTITLE2=Startin' Over
TTITLE3=Ride To The Sunset
TTITLE4=She's Leavin'
TTITLE5=Northbound Highway
TTITLE6=(Ghost) Riders In the Sky
TTITLE7=Tinfoil Raindrops
TTITLE8=Colorado
TTITLE9=Along The Navajo Trail
TTITLE10=Big Iron
TTITLE11=Quiet Old Cowboy
EXTD=
EXTT0=
EXTT1=
EXTT2=
EXTT3=
EXTT4=
EXTT5=
EXTT6=
EXTT7=
EXTT8=
EXTT9=
EXTT10=
EXTT11=
PLAYORDER=
